<svg xmlns="http://www.w3.org/2000/svg" aria-hidden="true" style="width:0;height:0;position:absolute;overflow:hidden"><defs><symbol id="icon-phone" viewBox="0 0 32 32"><path d="M21 2.667a3 3 0 0 1 3 3v20.667a3 3 0 0 1-3 3H11a3 3 0 0 1-3-3V5.667a3 3 0 0 1 3-3h10zm0 2H11a1 1 0 0 0-1 1v20.667a1 1 0 0 0 1 1h10a1 1 0 0 0 1-1V5.667a1 1 0 0 0-1-1zm-3.335 18.666h.001a1 1 0 0 1 .001 2l-3.333.005h-.001a1 1 0 0 1-.001-2l3.333-.005z"/></symbol><symbol id="icon-location" viewBox="0 0 32 32"><path d="M16 3.213h-.013A7.987 7.987 0 0 0 8 11.2c0 7.639 8 17.6 8 17.6s8-9.964 8-17.6a7.987 7.987 0 0 0-7.987-7.984h-.014H16zm0 12.403a4.32 4.32 0 1 1 0-8.64 4.32 4.32 0 1 1 0 8.64z"/></symbol><symbol id="icon-instagram" viewBox="0 0 32 32"><path d="M9.953 1.421c1.564-.072 2.063-.088 6.047-.088s4.483.017 6.045.088c1.563.071 2.629.32 3.563.681a7.218 7.218 0 0 1 2.597 1.693 7.158 7.158 0 0 1 1.691 2.596c.363.933.611 2 .683 3.56.072 1.567.088 2.065.088 6.048 0 3.984-.017 4.483-.088 6.047-.071 1.56-.32 2.627-.683 3.56a7.234 7.234 0 0 1-1.69 2.598l-.001.001a7.187 7.187 0 0 1-2.597 1.691c-.933.363-2 .611-3.56.683-1.565.072-2.064.088-6.048.088s-4.483-.017-6.047-.088c-1.56-.071-2.627-.32-3.56-.683a7.234 7.234 0 0 1-2.598-1.69l-.001-.001a7.196 7.196 0 0 1-1.675-2.548l-.017-.049c-.361-.933-.609-2-.681-3.56-.072-1.567-.088-2.065-.088-6.048 0-3.984.017-4.483.088-6.045s.32-2.629.681-3.563a7.243 7.243 0 0 1 1.692-2.596l.001-.001A7.192 7.192 0 0 1 6.342 2.12l.049-.017c.933-.361 2-.609 3.56-.681h.001zm11.974 2.64C20.38 3.99 19.916 3.976 16 3.976s-4.38.015-5.927.085c-1.431.065-2.207.304-2.724.505a4.57 4.57 0 0 0-1.687 1.096 4.553 4.553 0 0 0-1.086 1.655l-.01.031c-.201.517-.44 1.293-.505 2.724-.071 1.547-.085 2.011-.085 5.927s.015 4.38.085 5.927c.065 1.431.304 2.207.505 2.724a4.56 4.56 0 0 0 1.096 1.687 4.551 4.551 0 0 0 1.687 1.096c.517.201 1.293.44 2.724.505 1.547.071 2.009.085 5.927.085s4.38-.015 5.927-.085c1.431-.065 2.207-.304 2.724-.505a4.57 4.57 0 0 0 1.687-1.096 4.551 4.551 0 0 0 1.096-1.687c.201-.517.44-1.293.505-2.724.071-1.547.085-2.011.085-5.927s-.015-4.38-.085-5.927c-.065-1.431-.304-2.207-.505-2.724a4.57 4.57 0 0 0-1.096-1.687 4.566 4.566 0 0 0-1.655-1.086l-.031-.01c-.517-.201-1.293-.44-2.724-.505zm-7.8 16.46a4.893 4.893 0 1 0 3.555-9.117l-.034-.011a4.893 4.893 0 0 0-3.553 9.115l.032.012zm-3.458-9.852a7.54 7.54 0 0 1 10.662 10.662 7.54 7.54 0 0 1-10.662-10.662zm14.542-1.085a1.782 1.782 0 1 0-2.447-2.591l.001-.001a1.782 1.782 0 1 0 2.447 2.591l-.001.001z"/></symbol><symbol id="icon-facebook" viewBox="0 0 32 32"><path d="M14.259 11.916v1.836h-1.341v2.244h1.344v6.671h2.763v-6.671h1.853s.173-1.076.259-2.253h-2.103V12.21c0-.231.303-.539.6-.539h1.504V9.334h-2.045c-2.9 0-2.831 2.247-2.831 2.583z"/><path d="M8 5.333A2.667 2.667 0 0 0 5.333 8v16A2.667 2.667 0 0 0 8 26.667h16A2.667 2.667 0 0 0 26.667 24V8A2.667 2.667 0 0 0 24 5.333H8zm0-2.666h16A5.333 5.333 0 0 1 29.333 8v16A5.333 5.333 0 0 1 24 29.333H8A5.333 5.333 0 0 1 2.667 24V8A5.333 5.333 0 0 1 8 2.667z"/></symbol><symbol id="icon-telegram" viewBox="0 0 32 32"><path d="M26.069 3.996c-.342.025-.66.105-.953.23l.019-.007h-.004c-.284.113-1.64.683-3.699 1.547l-7.383 3.109-10.504 4.427.061-.024s-.359.117-.733.373a2.063 2.063 0 0 0-.587.568 1.646 1.646 0 0 0-.276 1.118l-.001-.008c.089.721.557 1.155.893 1.393.34.243.664.355.664.355h.008l4.883 1.645c.22.703 1.488 4.875 1.793 5.836.18.573.355.933.573 1.207.107.14.231.257.38.352.077.045.16.08.245.107l-.049-.013c.015.004.027.016.037.02.04.011.067.015.119.023.773.235 1.393-.245 1.393-.245l.036-.028 2.883-2.625 4.832 3.707.111.048c1.007.441 2.027.196 2.565-.239.543-.437.755-.996.755-.996l.035-.089 3.733-19.129c.107-.472.133-.915.016-1.343-.12-.435-.4-.808-.78-1.048a1.849 1.849 0 0 0-1.071-.269h.005zm-.1 2.049c-.004.064.008.056-.02.177v.011l-3.7 18.931c-.016.027-.043.085-.117.145-.077.061-.14.1-.464-.028l-5.911-4.532-3.569 3.253.749-4.789 9.656-9c.399-.369.265-.448.265-.448.028-.453-.6-.133-.6-.133l-12.179 7.545-.004-.02-5.851-1.972c.012-.004.021-.009.031-.014l-.001.001.032-.015.032-.011 10.507-4.427c2.653-1.117 5.325-2.241 7.38-3.109a831.852 831.852 0 0 1 3.66-1.531c.083-.032.043-.032.103-.032z"/></symbol><symbol id="icon-arrow-left" viewBox="0 0 32 32"><path d="M31 15.49H4.84l6.019-6.061L9.44 8 1 16.5 9.44 25l1.419-1.429-6.019-6.06H31V15.49z"/></symbol><symbol id="icon-arrow-right" viewBox="0 0 32 32"><path d="m22.56 8-1.42 1.429 6.02 6.06H1v2.021h26.16l-6.02 6.061L22.56 25 31 16.5 22.56 8z"/></symbol><symbol id="icon-close" viewBox="0 0 32 32"><path fill="none" stroke="gray" stroke-linecap="round" stroke-linejoin="round" stroke-width="2" d="m27.428 3.429-24 24m0-24 24 24" style="stroke:var(--color2,gray)"/></symbol><symbol id="icon-arrow-down" viewBox="0 0 32 32"><path d="M3.272 10.587c.362-.361.861-.585 1.413-.585s1.051.223 1.413.585l9.901 9.897 9.9-9.9a2 2 0 0 1 2.826 2.829l.001-.001-11.313 11.315c-.362.361-.861.585-1.413.585s-1.052-.224-1.413-.585L3.271 13.414c-.361-.362-.585-.861-.585-1.413s.224-1.052.585-1.413z"/></symbol></defs></svg>