<svg version="1.0" xmlns="http://www.w3.org/2000/svg" width="682.667" height="682.667" viewBox="0 0 512 512"><path d="M136.5 2.6c-29.7 2.5-54.7 8.8-77 19.3C32 35 16.4 49.5 11 66.9c-2 6.2-2 10-2 225.7V512h99.5V292.2c.1-206.1.2-219.9 1.8-222.9 4.4-8.3 16.8-15 33.1-17.8 7.4-1.3 25.9-.7 33.6 1.1 13.8 3.1 24.4 9.3 28 16.3 2 4 2 5 2 223.6V512h100V292.4c0-244.4-.6-223 6.8-229.6 15.5-13.5 54.4-16.2 76.4-5.3 5.9 3 11.3 7.7 13.4 11.7 1.2 2.3 1.4 35 1.4 222.8v220h100V293.2c0-242 .5-222.7-6.3-235.7-11.6-21.7-50.4-43.2-92.2-51-47.4-8.8-98.6-4.4-139.4 11.7-9.5 3.8-10.6 4.1-13.5 2.9-20.9-8.6-39.2-13.7-58.6-16.6-11.1-1.6-47.6-2.8-58.5-1.9z"/></svg>