<svg version="1.0" xmlns="http://www.w3.org/2000/svg" width="1706.667" height="1706.667" viewBox="0 0 1280 1280"><path d="M432.6 63.8c-.2.1-3.4.5-7.2.8-8 .5-10.9.8-18.4 1.9-3 .5-6.2.9-7 1-.9 0-2.1.5-2.8.9-.7.4-1.6.6-1.8.3-.3-.2-2.2-.1-4.2.4-4.6 1.2-7.1 1.8-9.7 2.3-1.1.2-3.8.9-6 1.5s-4.2 1-4.5 1c-.3 0-5 1.6-10.5 3.6s-10.7 3.8-11.5 4c-1.5.3-9.2 3.7-18 7.8-2.5 1.1-4.8 2-5.2 1.9-.5-.1-.8.3-.8.8 0 .6-.5 1-1 1-.6 0-2.8 1.1-5 2.5s-4 2.3-4 2c0-.3-1.6.6-3.5 2.1-1.9 1.4-3.5 2.2-3.5 1.8 0-.5-.4-.5-.8.1-.4.5-4.1 3.2-8.2 5.9-8.3 5.4-20.5 14.5-24.9 18.6-.9.8-3.5 3-5.6 4.9-11.1 9.4-29.8 28.9-37.3 38.8-2 2.6-3.9 5-4.2 5.3-1.3 1.1-11 15-10.4 15 .3 0-.1.7-.8 1.5-2.8 3.1-3.6 4.4-10.1 16-3.6 6.6-8.3 15.8-10.2 20.5-2 4.7-4 9.4-4.5 10.5-2.2 4.7-4.9 12.5-4.5 12.5.3 0 .1 1-.6 2.1-1 2-5.6 17.7-6.5 22.4-.2 1.1-1 5.4-1.9 9.5-1.8 9-2.2 11.7-3 19.5-.4 3.3-.9 7.6-1.2 9.5-.3 1.9-.7 220.1-.8 484.8l-.2 481.2h92.4c50.7 0 92.3-.3 92.4-.8 0-.4.2-218.3.3-484.2.2-265.9.6-485.1 1-487 .8-4.2 3.5-13.9 4.3-16 .3-.8.7-1.7.7-2 .1-.3.5-1.1.9-1.8.5-.6.5-1.2 0-1.2-.4 0-.3-.4.2-.8.6-.4 2.1-2.9 3.5-5.7 1.4-2.7 3.6-6.2 4.8-7.7 1.3-1.5 2.1-2.8 1.7-2.8-.3 0 .4-1.1 1.7-2.3 1.3-1.3 3.5-3.7 4.9-5.3 5.7-6.3 15.2-13.6 24.2-18.3 5.7-3 19.1-8.2 20.5-8 .4.1.9.1 1.2-.1 3.3-1.2 17.1-2.6 25-2.4 6.8.1 9.5.4 18.5 2 8.2 1.4 27.3 9.5 29.5 12.4.3.4 1.9 1.4 3.5 2.3 4 2.1 14 11.9 19.9 19.6 7.9 10.2 14.9 26.6 16.2 38 .3 3 .8 6.2.9 7 .2.9.4 218.4.4 483.3l.1 481.8h185v-37.1c-.1-20.4 0-37.3.2-37.4.2-.2.1-6.5-.2-14-.3-7.5-.2-14.2.1-14.7.4-.6.4-2.1 0-3.5s-.4-5.1-.1-8.4c.3-3.2.2-6.6-.2-7.3-.5-.8-.4-1.7.2-2.1.6-.4.8-1 .6-1.4-.4-.6-.7-15.9-.5-26.1 0-.8-.1-5.2-.2-9.8-.1-4.5 0-8.4.2-8.7.2-.2.2-21.8-.1-48-.3-26.2-.3-47.8 0-48 .3-.2.3-6.5 0-14s-.2-14.2.1-14.7c.4-.6.4-2.1 0-3.5s-.4-5.1-.1-8.4c.3-3.2.2-6.6-.2-7.3-.5-.8-.4-1.7.2-2.1.6-.4.8-1 .6-1.4-.4-.6-.7-15.9-.5-26.1 0-.8-.1-5.2-.2-9.8-.1-4.5 0-8.4.2-8.7.2-.2.2-21.8-.1-48-.3-26.2-.3-47.8 0-48 .3-.2.3-6.5 0-14s-.2-14.2.1-14.7c.4-.6.4-2.1 0-3.5s-.4-5.1-.1-8.4c.3-3.2.2-6.6-.2-7.3-.5-.8-.4-1.7.2-2.1.6-.4.8-1 .6-1.4-.4-.6-.7-15.9-.5-26.1 0-.8-.1-5.2-.2-9.8-.1-4.5 0-8.4.2-8.7.2-.2.2-21.8-.1-48-.3-26.2-.3-47.8 0-48 .3-.2.3-6.5 0-14s-.2-14.2.1-14.7c.4-.6.4-2.1 0-3.5s-.4-5.1-.1-8.4c.3-3.2.2-6.6-.2-7.3-.5-.8-.4-1.7.2-2.1.6-.4.8-1 .6-1.4-.4-.6-.7-15.9-.5-26.1 0-.8-.1-5.2-.2-9.8-.1-4.5 0-8.4.2-8.7.2-.2.2-7.4-.1-16-.3-8.6-.3-15.8 0-16 .3-.2.3-6.5 0-14s-.2-14.2.1-14.7c.4-.6.4-2.1 0-3.5s-.4-5.1-.1-8.4c.3-3.2.2-6.6-.2-7.3-.5-.8-.4-1.7.2-2.1.6-.4.8-1 .6-1.4-.4-.6-.7-15.9-.5-26.1 0-.8 0-5.1-.1-9.5s-.1-8.5-.1-9c.1-.6.2-22.4.4-48.5s.7-49.1 1.1-51c1.4-6.5 6.8-22 7.7-22 .5 0 .8-.3.7-.8-.3-1.1 3.5-8.2 4.4-8.2.4 0 .8-.6.8-1.3 0-.8 1.1-2.4 2.5-3.7 1.4-1.3 2.5-2.7 2.5-3.1 0-1.2 9.4-10.2 15.5-14.9 9.9-7.7 25.1-14.5 37-16.5 1.1-.2 3.8-.7 6-1.1 2.2-.3 7.6-.7 12-.8 20.7-.3 38.8 4.9 54.3 15.7 6.5 4.5 18.2 15.2 18.2 16.6 0 .4.9 1.6 2 2.6 2.3 2.1 10 14.6 10 16.3 0 .7.5 1.2 1.1 1.2.5 0 .7.5.4 1-.4.6-.1 1.8.6 2.6.7.9 1.4 2.1 1.5 2.8.2.6.9 3.6 1.7 6.6.9 3 1.9 7.1 2.3 9 .4 1.9.8 221.1 1 487 .1 265.9.3 483.8.3 484.2.1.5 41.7.8 92.5.8h92.4l-.3-480.3c-.1-264.1-.5-482.7-.8-485.7-2.6-26.4-10.4-59.7-17.7-75.5-.5-1.1-1.9-4.5-3.1-7.5-14.5-35.8-45.9-76.9-80.4-105.5-3.3-2.8-6.2-5.2-6.5-5.6-1.3-1.4-18.5-13.3-26-18-7.7-4.8-24.2-13.4-33-17.2-4.2-1.8-15.3-6.1-16-6.3-.3 0-4.4-1.3-9.2-2.8-4.8-1.5-9.7-2.9-10.8-3.1-1.1-.2-2.3-.6-2.8-.8-.4-.3-2.5-.8-4.7-1.1-2.2-.4-5.7-1.1-7.8-1.7-2.1-.5-5.7-1.2-8-1.4-2.3-.2-4.2-.4-4.2-.5 0-.1-1.1-.3-2.5-.5s-4.6-.6-7.3-1C842.1 64 798 62.8 798 64c0 .3-1.2.5-2.7.6-4.9.1-21.5 2.2-25.3 3.1-1.4.3-3.6.7-5 .9-1.4.2-3.6.6-5 1-1.4.3-3.4.8-4.5 1-3.6.5-16.9 4.4-18.7 5.4-1 .6-2.4 1-3.1 1-1.2 0-14.7 4.9-19.2 7-14.2 6.5-29 14-36 18.4-9.5 5.9-27.9 18.8-29.5 20.5-.3.3-2.5 2.2-5 4.2s-5.8 4.8-7.5 6.3c-2.5 2.1-3.2 2.3-4.5 1.2-.8-.7-2.6-2.2-3.9-3.2-1.3-1-2.8-2.4-3.5-2.9-.6-.6-3.1-2.6-5.6-4.5-4.8-3.7-7.5-5.9-9.4-7.5-.7-.6-1.9-1.5-2.8-2-.9-.6-5.7-3.8-10.6-7.2-5-3.4-10-6.4-11.1-6.8-1.2-.3-2.7-1.2-3.3-1.9-.7-.6-3.5-2.3-6.3-3.6-2.7-1.3-5.2-2.6-5.5-2.9-.5-.6-12.9-6.5-13.9-6.7-.3 0-1.7-.6-3.1-1.2-10.5-4.5-31.5-11.7-37.5-12.7-1.1-.2-6-1.3-11-2.4-10.6-2.3-16-3.1-32.5-4.7-6-.5-39-1.1-39.4-.6z"/></svg>