<svg aria-hidden="true" style="position: absolute; width: 0; height: 0; overflow: hidden;" version="1.1" xmlns="http://www.w3.org/2000/svg" xmlns:xlink="http://www.w3.org/1999/xlink">
<defs>
<symbol id="icon-phone" viewBox="0 0 32 32">
<path d="M21 2.667c1.657 0 3 1.343 3 3v0 20.667c0 1.657-1.343 3-3 3v0h-10c-1.657 0-3-1.343-3-3v0-20.667c0-1.657 1.343-3 3-3v0h10zM21 4.667h-10c-0.552 0-1 0.448-1 1v0 20.667c0 0.552 0.448 1 1 1h10c0.552 0 1-0.448 1-1v0-20.667c0-0.552-0.448-1-1-1v0zM17.665 23.333c0 0 0.001 0 0.001 0 0.552 0 1 0.448 1 1s-0.447 0.999-0.999 1l-3.333 0.005c-0 0-0.001 0-0.001 0-0.552 0-1-0.448-1-1s0.447-0.999 0.999-1l3.333-0.005z"></path>
</symbol>
<symbol id="icon-location" viewBox="0 0 32 32">
<path  d="M16 3.213c-0.004 0-0.009 0-0.013 0-4.411 0-7.987 3.576-7.987 7.987v0c0 7.639 8 17.6 8 17.6s8-9.964 8-17.6c-0.002-4.41-3.577-7.984-7.987-7.984-0.005 0-0.009 0-0.014 0h0.001zM16 15.616c-2.386 0-4.32-1.934-4.32-4.32s1.934-4.32 4.32-4.32v0c2.386 0 4.32 1.934 4.32 4.32s-1.934 4.32-4.32 4.32v0z"></path>
</symbol>
<symbol id="icon-instagram" viewBox="0 0 32 32">
<path  d="M9.953 1.421c1.564-0.072 2.063-0.088 6.047-0.088s4.483 0.017 6.045 0.088c1.563 0.071 2.629 0.32 3.563 0.681 0.977 0.369 1.864 0.947 2.597 1.693 0.747 0.732 1.323 1.617 1.691 2.596 0.363 0.933 0.611 2 0.683 3.56 0.072 1.567 0.088 2.065 0.088 6.048 0 3.984-0.017 4.483-0.088 6.047-0.071 1.56-0.32 2.627-0.683 3.56-0.389 1.017-0.964 1.884-1.69 2.598l-0.001 0.001c-0.733 0.747-1.62 1.323-2.597 1.691-0.933 0.363-2 0.611-3.56 0.683-1.565 0.072-2.064 0.088-6.048 0.088s-4.483-0.017-6.047-0.088c-1.56-0.071-2.627-0.32-3.56-0.683-1.017-0.389-1.884-0.964-2.598-1.69l-0.001-0.001c-0.727-0.714-1.303-1.581-1.675-2.548l-0.017-0.049c-0.361-0.933-0.609-2-0.681-3.56-0.072-1.567-0.088-2.065-0.088-6.048 0-3.984 0.017-4.483 0.088-6.045s0.32-2.629 0.681-3.563c0.39-1.016 0.966-1.883 1.692-2.596l0.001-0.001c0.714-0.727 1.58-1.303 2.547-1.675l0.049-0.017c0.933-0.361 2-0.609 3.56-0.681h0.001zM21.927 4.061c-1.547-0.071-2.011-0.085-5.927-0.085s-4.38 0.015-5.927 0.085c-1.431 0.065-2.207 0.304-2.724 0.505-0.684 0.267-1.173 0.583-1.687 1.096-0.475 0.462-0.848 1.025-1.086 1.655l-0.010 0.031c-0.201 0.517-0.44 1.293-0.505 2.724-0.071 1.547-0.085 2.011-0.085 5.927s0.015 4.38 0.085 5.927c0.065 1.431 0.304 2.207 0.505 2.724 0.235 0.636 0.609 1.213 1.096 1.687 0.473 0.487 1.051 0.861 1.687 1.096 0.517 0.201 1.293 0.44 2.724 0.505 1.547 0.071 2.009 0.085 5.927 0.085s4.38-0.015 5.927-0.085c1.431-0.065 2.207-0.304 2.724-0.505 0.684-0.267 1.173-0.583 1.687-1.096 0.487-0.473 0.861-1.051 1.096-1.687 0.201-0.517 0.44-1.293 0.505-2.724 0.071-1.547 0.085-2.011 0.085-5.927s-0.015-4.38-0.085-5.927c-0.065-1.431-0.304-2.207-0.505-2.724-0.267-0.684-0.583-1.173-1.096-1.687-0.462-0.474-1.025-0.848-1.655-1.086l-0.031-0.010c-0.517-0.201-1.293-0.44-2.724-0.505zM14.127 20.521c0.554 0.236 1.198 0.373 1.874 0.373 2.703 0 4.893-2.191 4.893-4.893 0-2.112-1.338-3.911-3.212-4.597l-0.034-0.011c-0.49-0.181-1.057-0.286-1.648-0.286-2.703 0-4.893 2.191-4.893 4.893 0 2.026 1.232 3.765 2.988 4.508l0.032 0.012zM10.669 10.669c1.364-1.364 3.249-2.208 5.331-2.208 4.163 0 7.539 3.375 7.539 7.539 0 2.082-0.844 3.966-2.208 5.331v0c-1.364 1.364-3.249 2.208-5.331 2.208-4.163 0-7.539-3.375-7.539-7.539 0-2.082 0.844-3.966 2.208-5.331v0zM25.211 9.584c0.345-0.326 0.559-0.786 0.559-1.296 0-0.984-0.798-1.782-1.782-1.782-0.474 0-0.904 0.185-1.224 0.487l0.001-0.001c-0.345 0.326-0.559 0.786-0.559 1.296 0 0.984 0.798 1.782 1.782 1.782 0.474 0 0.904-0.185 1.224-0.487l-0.001 0.001z"></path>
</symbol>
<symbol id="icon-facebook" viewBox="0 0 32 32">
<path d="M14.259 11.916v1.836h-1.341v2.244h1.344v6.671h2.763v-6.671h1.853s0.173-1.076 0.259-2.253h-2.103v-1.533c0-0.231 0.303-0.539 0.6-0.539h1.504v-2.337h-2.045c-2.9 0-2.831 2.247-2.831 2.583z"></path>
<path d="M8 5.333c-1.473 0-2.667 1.194-2.667 2.667v0 16c0 1.473 1.194 2.667 2.667 2.667v0h16c1.473 0 2.667-1.194 2.667-2.667v0-16c0-1.473-1.194-2.667-2.667-2.667v0h-16zM8 2.667h16c2.946 0 5.333 2.388 5.333 5.333v0 16c0 2.946-2.388 5.333-5.333 5.333v0h-16c-2.946 0-5.333-2.388-5.333-5.333v0-16c0-2.946 2.388-5.333 5.333-5.333v0z"></path>
</symbol>
<symbol id="icon-telegram" viewBox="0 0 32 32">
<path d="M26.069 3.996c-0.342 0.025-0.66 0.105-0.953 0.23l0.019-0.007h-0.004c-0.284 0.113-1.64 0.683-3.699 1.547l-7.383 3.109c-5.297 2.232-10.504 4.427-10.504 4.427l0.061-0.024s-0.359 0.117-0.733 0.373c-0.232 0.149-0.431 0.341-0.587 0.568-0.179 0.261-0.286 0.584-0.286 0.931 0 0.063 0.004 0.125 0.010 0.187l-0.001-0.008c0.089 0.721 0.557 1.155 0.893 1.393 0.34 0.243 0.664 0.355 0.664 0.355h0.008l4.883 1.645c0.22 0.703 1.488 4.875 1.793 5.836 0.18 0.573 0.355 0.933 0.573 1.207 0.107 0.14 0.231 0.257 0.38 0.352 0.077 0.045 0.16 0.080 0.245 0.107l-0.049-0.013c0.015 0.004 0.027 0.016 0.037 0.020 0.040 0.011 0.067 0.015 0.119 0.023 0.773 0.235 1.393-0.245 1.393-0.245l0.036-0.028 2.883-2.625 4.832 3.707 0.111 0.048c1.007 0.441 2.027 0.196 2.565-0.239 0.543-0.437 0.755-0.996 0.755-0.996l0.035-0.089 3.733-19.129c0.107-0.472 0.133-0.915 0.016-1.343-0.12-0.435-0.4-0.808-0.78-1.048-0.277-0.171-0.612-0.272-0.971-0.272-0.034 0-0.067 0.001-0.1 0.003l0.005-0zM25.969 6.045c-0.004 0.064 0.008 0.056-0.020 0.177v0.011l-3.7 18.931c-0.016 0.027-0.043 0.085-0.117 0.145-0.077 0.061-0.14 0.1-0.464-0.028l-5.911-4.532-3.569 3.253 0.749-4.789 9.656-9c0.399-0.369 0.265-0.448 0.265-0.448 0.028-0.453-0.6-0.133-0.6-0.133l-12.179 7.545-0.004-0.020-5.851-1.972c0.012-0.004 0.021-0.009 0.031-0.014l-0.001 0.001 0.032-0.015 0.032-0.011 10.507-4.427c2.653-1.117 5.325-2.241 7.38-3.109 1.219-0.513 2.439-1.024 3.66-1.531 0.083-0.032 0.043-0.032 0.103-0.032z"></path>
</symbol>
<symbol id="icon-arrow-left" viewBox="0 0 32 32">
<path d="M31 15.49h-26.16l6.019-6.061-1.419-1.429-8.44 8.5 8.44 8.5 1.419-1.429-6.019-6.060h26.16v-2.021z"></path>
</symbol>
<symbol id="icon-arrow-right" viewBox="0 0 32 32">
<path d="M22.56 8l-1.42 1.429 6.020 6.060h-26.16v2.021h26.16l-6.020 6.061 1.42 1.429 8.44-8.5-8.44-8.5z"></path>
</symbol>
<symbol id="icon-close" viewBox="0 0 32 32">
<path fill="none" stroke="#808080" style="stroke: var(--color2, #808080)" stroke-linejoin="round" stroke-linecap="round" stroke-miterlimit="4" stroke-width="2" d="M27.428 3.429l-24 24M3.428 3.429l24 24"></path>
</symbol>
<symbol id="icon-arrow-down" viewBox="0 0 32 32">
<path d="M3.272 10.587c0.362-0.361 0.861-0.585 1.413-0.585s1.051 0.223 1.413 0.585l9.901 9.897 9.9-9.9c0.358-0.339 0.841-0.547 1.374-0.547 1.105 0 2 0.895 2 2 0 0.533-0.208 1.017-0.548 1.376l0.001-0.001-11.313 11.315c-0.362 0.361-0.861 0.585-1.413 0.585s-1.052-0.224-1.413-0.585l-11.316-11.313c-0.361-0.362-0.585-0.861-0.585-1.413s0.224-1.052 0.585-1.413l-0 0z"></path>
</symbol>
</defs>
</svg>
