<?xml version="1.0" standalone="no"?>
<!DOCTYPE svg PUBLIC "-//W3C//DTD SVG 20010904//EN"
 "http://www.w3.org/TR/2001/REC-SVG-20010904/DTD/svg10.dtd">
<svg version="1.0" xmlns="http://www.w3.org/2000/svg"
 width="1280.000000pt" height="1280.000000pt" viewBox="0 0 1280.000000 1280.000000"
 preserveAspectRatio="xMidYMid meet">
<metadata>
Created by potrace 1.14, written by Peter Selinger 2001-2017
</metadata>
<g transform="translate(0.000000,1280.000000) scale(0.100000,-0.100000)"
fill="#000000" stroke="none">
<path d="M4326 12162 c-2 -1 -34 -5 -72 -8 -80 -5 -109 -8 -184 -19 -30 -5
-62 -9 -70 -10 -9 0 -21 -5 -28 -9 -7 -4 -16 -6 -18 -3 -3 2 -22 1 -42 -4 -46
-12 -71 -18 -97 -23 -11 -2 -38 -9 -60 -15 -22 -6 -42 -10 -45 -10 -3 0 -50
-16 -105 -36 -55 -20 -107 -38 -115 -40 -15 -3 -92 -37 -180 -78 -25 -11 -48
-20 -52 -19 -5 1 -8 -3 -8 -8 0 -6 -5 -10 -10 -10 -6 0 -28 -11 -50 -25 -22
-14 -40 -23 -40 -20 0 3 -16 -6 -35 -21 -19 -14 -35 -22 -35 -18 0 5 -4 5 -8
-1 -4 -5 -41 -32 -82 -59 -83 -54 -205 -145 -249 -186 -9 -8 -35 -30 -56 -49
-111 -94 -298 -289 -373 -388 -20 -26 -39 -50 -42 -53 -13 -11 -110 -150 -104
-150 3 0 -1 -7 -8 -15 -28 -31 -36 -44 -101 -160 -36 -66 -83 -158 -102 -205
-20 -47 -40 -94 -45 -105 -22 -47 -49 -125 -45 -125 3 0 1 -10 -6 -21 -10 -20
-56 -177 -65 -224 -2 -11 -10 -54 -19 -95 -18 -90 -22 -117 -30 -195 -4 -33
-9 -76 -12 -95 -3 -19 -7 -2201 -8 -4848 l-2 -4812 924 0 c507 0 923 3 924 8
0 4 2 2183 3 4842 2 2659 6 4851 10 4870 8 42 35 139 43 160 3 8 7 17 7 20 1
3 5 11 9 18 5 6 5 12 0 12 -4 0 -3 4 2 8 6 4 21 29 35 57 14 27 36 62 48 77
13 15 21 28 17 28 -3 0 4 11 17 23 13 13 35 37 49 53 57 63 152 136 242 183
57 30 191 82 205 80 4 -1 9 -1 12 1 33 12 171 26 250 24 68 -1 95 -4 185 -20
82 -14 273 -95 295 -124 3 -4 19 -14 35 -23 40 -21 140 -119 199 -196 79 -102
149 -266 162 -380 3 -30 8 -62 9 -70 2 -9 4 -2184 4 -4833 l1 -4818 925 0 925
0 0 371 c-1 204 0 373 2 374 2 2 1 65 -2 140 -3 75 -2 142 1 147 4 6 4 21 0
35 -4 14 -4 51 -1 84 3 32 2 66 -2 73 -5 8 -4 17 2 21 6 4 8 10 6 14 -4 6 -7
159 -5 261 0 8 -1 52 -2 98 -1 45 0 84 2 87 2 2 2 218 -1 480 -3 262 -3 478 0
480 3 2 3 65 0 140 -3 75 -2 142 1 147 4 6 4 21 0 35 -4 14 -4 51 -1 84 3 32
2 66 -2 73 -5 8 -4 17 2 21 6 4 8 10 6 14 -4 6 -7 159 -5 261 0 8 -1 52 -2 98
-1 45 0 84 2 87 2 2 2 218 -1 480 -3 262 -3 478 0 480 3 2 3 65 0 140 -3 75
-2 142 1 147 4 6 4 21 0 35 -4 14 -4 51 -1 84 3 32 2 66 -2 73 -5 8 -4 17 2
21 6 4 8 10 6 14 -4 6 -7 159 -5 261 0 8 -1 52 -2 98 -1 45 0 84 2 87 2 2 2
218 -1 480 -3 262 -3 478 0 480 3 2 3 65 0 140 -3 75 -2 142 1 147 4 6 4 21 0
35 -4 14 -4 51 -1 84 3 32 2 66 -2 73 -5 8 -4 17 2 21 6 4 8 10 6 14 -4 6 -7
159 -5 261 0 8 -1 52 -2 98 -1 45 0 84 2 87 2 2 2 74 -1 160 -3 86 -3 158 0
160 3 2 3 65 0 140 -3 75 -2 142 1 147 4 6 4 21 0 35 -4 14 -4 51 -1 84 3 32
2 66 -2 73 -5 8 -4 17 2 21 6 4 8 10 6 14 -4 6 -7 159 -5 261 0 8 0 51 -1 95
-1 44 -1 85 -1 90 1 6 2 224 4 485 2 261 7 491 11 510 14 65 68 220 77 220 5
0 8 3 7 8 -3 11 35 82 44 82 4 0 8 6 8 13 0 8 11 24 25 37 14 13 25 27 25 31
0 12 94 102 155 149 99 77 251 145 370 165 11 2 38 7 60 11 22 3 76 7 120 8
207 3 388 -49 543 -157 65 -45 182 -152 182 -166 0 -4 9 -16 20 -26 23 -21
100 -146 100 -163 0 -7 5 -12 11 -12 5 0 7 -5 4 -10 -4 -6 -1 -18 6 -26 7 -9
14 -21 15 -28 2 -6 9 -36 17 -66 9 -30 19 -71 23 -90 4 -19 8 -2211 10 -4870
1 -2659 3 -4838 3 -4842 1 -5 417 -8 925 -8 l924 0 -3 4803 c-1 2641 -5 4827
-8 4857 -26 264 -104 597 -177 755 -5 11 -19 45 -31 75 -145 358 -459 769
-804 1055 -33 28 -62 52 -65 56 -13 14 -185 133 -260 180 -77 48 -242 134
-330 172 -42 18 -153 61 -160 63 -3 0 -44 13 -92 28 -48 15 -97 29 -108 31
-11 2 -23 6 -28 8 -4 3 -25 8 -47 11 -22 4 -57 11 -78 17 -21 5 -57 12 -80 14
-23 2 -42 4 -42 5 0 1 -11 3 -25 5 -14 2 -46 6 -73 10 -116 15 -557 27 -557
15 0 -3 -12 -5 -27 -6 -49 -1 -215 -22 -253 -31 -14 -3 -36 -7 -50 -9 -14 -2
-36 -6 -50 -10 -14 -3 -34 -8 -45 -10 -36 -5 -169 -44 -187 -54 -10 -6 -24
-10 -31 -10 -12 0 -147 -49 -192 -70 -142 -65 -290 -140 -360 -184 -95 -59
-279 -188 -295 -205 -3 -3 -25 -22 -50 -42 -25 -20 -58 -48 -75 -63 -25 -21
-32 -23 -45 -12 -8 7 -26 22 -39 32 -13 10 -28 24 -35 29 -6 6 -31 26 -56 45
-48 37 -75 59 -94 75 -7 6 -19 15 -28 20 -9 6 -57 38 -106 72 -50 34 -100 64
-111 68 -12 3 -27 12 -33 19 -7 6 -35 23 -63 36 -27 13 -52 26 -55 29 -5 6
-129 65 -139 67 -3 0 -17 6 -31 12 -105 45 -315 117 -375 127 -11 2 -60 13
-110 24 -106 23 -160 31 -325 47 -60 5 -390 11 -394 6z"/>
</g>
</svg>
