<?xml version="1.0" standalone="no"?>
<!DOCTYPE svg PUBLIC "-//W3C//DTD SVG 20010904//EN"
 "http://www.w3.org/TR/2001/REC-SVG-20010904/DTD/svg10.dtd">
<svg version="1.0" xmlns="http://www.w3.org/2000/svg"
 width="512.000000pt" height="512.000000pt" viewBox="0 0 512.000000 512.000000"
 preserveAspectRatio="xMidYMid meet">
<metadata>
Created by potrace 1.14, written by Peter Selinger 2001-2017
</metadata>
<g transform="translate(0.000000,512.000000) scale(0.100000,-0.100000)"
fill="#000000" stroke="none">
<path d="M1365 5094 c-297 -25 -547 -88 -770 -193 -275 -131 -431 -276 -485
-450 -20 -62 -20 -100 -20 -2257 l0 -2194 498 0 497 0 0 2198 c1 2061 2 2199
18 2229 44 83 168 150 331 178 74 13 259 7 336 -11 138 -31 244 -93 280 -163
20 -40 20 -50 20 -2236 l0 -2195 500 0 500 0 0 2196 c0 2444 -6 2230 68 2296
155 135 544 162 764 53 59 -30 113 -77 134 -117 12 -23 14 -350 14 -2228 l0
-2200 500 0 500 0 0 2188 c0 2420 5 2227 -63 2357 -116 217 -504 432 -922 510
-474 88 -986 44 -1394 -117 -95 -38 -106 -41 -135 -29 -209 86 -392 137 -586
166 -111 16 -476 28 -585 19z"/>
</g>
</svg>
